<svg width="17" height="17" viewBox="0 0 17 17" fill="none" xmlns="http://www.w3.org/2000/svg">
<path d="M16.2068 14.7926L16.5603 14.439L16.5603 14.439L16.2068 14.7926ZM16.2068 15.4997L16.5603 15.8532L16.5603 15.8532L16.2068 15.4997ZM13.2071 11.7929L13.5607 11.4393L13.2071 11.0858L12.8536 11.4393L13.2071 11.7929ZM12.5 12.5L12.1464 12.1464L11.7929 12.5L12.1464 12.8536L12.5 12.5ZM15.4997 15.4997L15.1461 15.8532L15.1461 15.8532L15.4997 15.4997ZM14.5 7.5H14C14 11.0899 11.0899 14 7.5 14V14.5V15C11.6421 15 15 11.6421 15 7.5H14.5ZM7.5 0.5V1C11.0899 1 14 3.91015 14 7.5H14.5H15C15 3.35786 11.6421 0 7.5 0V0.5ZM0.5 7.5H1C1 3.91015 3.91015 1 7.5 1V0.5V0C3.35786 0 0 3.35786 0 7.5H0.5ZM7.5 14.5V14C3.91015 14 1 11.0899 1 7.5H0.5H0C0 11.6421 3.35786 15 7.5 15V14.5ZM16.2068 14.7926L15.8532 15.1461V15.1461L16.2068 15.4997L16.5603 15.8532C16.9509 15.4627 16.9509 14.8295 16.5603 14.439L16.2068 14.7926ZM13.2071 11.7929L12.8536 12.1464L15.8532 15.1461L16.2068 14.7926L16.5603 14.439L13.5607 11.4393L13.2071 11.7929ZM12.5 12.5L12.8536 12.8536L13.5607 12.1464L13.2071 11.7929L12.8536 11.4393L12.1464 12.1464L12.5 12.5ZM15.4997 15.4997L15.8532 15.1461L12.8536 12.1464L12.5 12.5L12.1464 12.8536L15.1461 15.8532L15.4997 15.4997ZM16.2068 15.4997L15.8532 15.1461H15.8532L15.4997 15.4997L15.1461 15.8532C15.5367 16.2438 16.1698 16.2438 16.5603 15.8532L16.2068 15.4997Z" fill="#A6A6A6"/>
</svg>
